<svg width="400" height="400" viewBox="0 0 400 400" fill="none" xmlns="http://www.w3.org/2000/svg">
<g id="button" clip-path="url(#clip0)">
<path id="Polygon-2" d="M17.7241 124.499L124.499 17.7241L275.501 17.7241L382.276 124.499L382.276 275.501L275.501 382.276L124.499 382.276L17.7241 275.501L17.7241 124.499Z" stroke="white" stroke-width="5"/>
<path id="Polygon-1" d="M60.4921 60.4921L200 2.70598L339.508 60.4921L397.294 200L339.508 339.508L200 397.294L60.4921 339.508L2.70598 200L60.4921 60.4921Z" stroke="white" stroke-width="5"/>
<path id="GAME 2" d="M135.322 215.871C133.997 217.768 132.144 219.192 129.763 220.141C127.399 221.072 124.642 221.537 121.491 221.537C118.304 221.537 115.476 220.794 113.005 219.308C110.534 217.804 108.618 215.674 107.258 212.917C105.915 210.159 105.226 206.964 105.19 203.329V199.918C105.19 194.028 106.56 189.463 109.299 186.222C112.056 182.982 115.923 181.361 120.9 181.361C124.982 181.361 128.268 182.409 130.756 184.503C133.245 186.58 134.767 189.534 135.322 193.366H130.166C129.199 188.192 126.119 185.604 120.927 185.604C117.472 185.604 114.849 186.822 113.059 189.257C111.286 191.674 110.391 195.183 110.373 199.784V202.98C110.373 207.366 111.376 210.858 113.381 213.454C115.386 216.032 118.098 217.321 121.518 217.321C123.452 217.321 125.144 217.106 126.594 216.676C128.044 216.247 129.243 215.521 130.192 214.501V205.719H121.142V201.53H135.322V215.871ZM165.534 210.795H149.152L145.473 221H140.156L155.087 181.898H159.599L174.558 221H169.267L165.534 210.795ZM150.71 206.552H164.003L157.343 188.263L150.71 206.552ZM186.481 181.898L199.265 213.803L212.048 181.898H218.735V221H213.579V205.773L214.062 189.337L201.225 221H197.277L184.467 189.418L184.978 205.773V221H179.821V181.898H186.481ZM249.941 202.926H232.995V216.784H252.68V221H227.839V181.898H252.412V186.142H232.995V198.71H249.941V202.926ZM297.072 221H271.452V217.428L284.987 202.389C286.993 200.115 288.371 198.271 289.123 196.857C289.893 195.425 290.278 193.948 290.278 192.426C290.278 190.385 289.66 188.711 288.425 187.404C287.189 186.097 285.542 185.443 283.483 185.443C281.013 185.443 279.088 186.151 277.709 187.565C276.349 188.961 275.668 190.913 275.668 193.419H270.7C270.7 189.821 271.855 186.911 274.165 184.691C276.492 182.471 279.598 181.361 283.483 181.361C287.118 181.361 289.991 182.319 292.104 184.235C294.217 186.133 295.273 188.666 295.273 191.835C295.273 195.684 292.82 200.268 287.915 205.585L277.441 216.945H297.072V221Z" fill="white"/>
</g>
<defs>
<clipPath id="clip0">
<rect width="400" height="400" fill="white"/>
</clipPath>
</defs>
</svg>
