<svg width="400" height="400" viewBox="0 0 400 400" fill="none" xmlns="http://www.w3.org/2000/svg">
<g id="button" clip-path="url(#clip0)">
<path id="Polygon-2" d="M17.7241 124.499L124.499 17.7241L275.501 17.7241L382.276 124.499L382.276 275.501L275.501 382.276L124.499 382.276L17.7241 275.501L17.7241 124.499Z" stroke="white" stroke-width="5"/>
<path id="Polygon-1" d="M60.4921 60.4921L200 2.70598L339.508 60.4921L397.294 200L339.508 339.508L200 397.294L60.4921 339.508L2.70598 200L60.4921 60.4921Z" stroke="white" stroke-width="5"/>
<path id="GAME 3" d="M135.322 215.871C133.997 217.768 132.144 219.192 129.763 220.141C127.399 221.072 124.642 221.537 121.491 221.537C118.304 221.537 115.476 220.794 113.005 219.308C110.534 217.804 108.618 215.674 107.258 212.917C105.915 210.159 105.226 206.964 105.19 203.329V199.918C105.19 194.028 106.56 189.463 109.299 186.222C112.056 182.982 115.923 181.361 120.9 181.361C124.982 181.361 128.268 182.409 130.756 184.503C133.245 186.58 134.767 189.534 135.322 193.366H130.166C129.199 188.192 126.119 185.604 120.927 185.604C117.472 185.604 114.849 186.822 113.059 189.257C111.286 191.674 110.391 195.183 110.373 199.784V202.98C110.373 207.366 111.376 210.858 113.381 213.454C115.386 216.032 118.098 217.321 121.518 217.321C123.452 217.321 125.144 217.106 126.594 216.676C128.044 216.247 129.243 215.521 130.192 214.501V205.719H121.142V201.53H135.322V215.871ZM165.534 210.795H149.152L145.473 221H140.156L155.087 181.898H159.599L174.558 221H169.267L165.534 210.795ZM150.71 206.552H164.003L157.343 188.263L150.71 206.552ZM186.481 181.898L199.265 213.803L212.048 181.898H218.735V221H213.579V205.773L214.062 189.337L201.225 221H197.277L184.467 189.418L184.978 205.773V221H179.821V181.898H186.481ZM249.941 202.926H232.995V216.784H252.68V221H227.839V181.898H252.412V186.142H232.995V198.71H249.941V202.926ZM278.676 199.032H282.409C284.755 198.996 286.599 198.379 287.941 197.179C289.284 195.98 289.956 194.359 289.956 192.318C289.956 187.735 287.673 185.443 283.107 185.443C280.959 185.443 279.24 186.061 277.951 187.296C276.68 188.514 276.044 190.134 276.044 192.157H271.076C271.076 189.06 272.204 186.491 274.46 184.45C276.734 182.391 279.616 181.361 283.107 181.361C286.796 181.361 289.687 182.337 291.782 184.289C293.876 186.24 294.924 188.952 294.924 192.426C294.924 194.127 294.369 195.774 293.259 197.367C292.167 198.961 290.672 200.151 288.774 200.939C290.922 201.619 292.578 202.747 293.742 204.323C294.924 205.898 295.515 207.823 295.515 210.097C295.515 213.606 294.369 216.39 292.077 218.449C289.785 220.508 286.805 221.537 283.134 221.537C279.464 221.537 276.474 220.543 274.165 218.556C271.873 216.569 270.727 213.946 270.727 210.688H275.722C275.722 212.746 276.394 214.394 277.736 215.629C279.079 216.864 280.878 217.482 283.134 217.482C285.533 217.482 287.368 216.855 288.64 215.602C289.911 214.349 290.546 212.549 290.546 210.204C290.546 207.93 289.848 206.185 288.452 204.967C287.055 203.75 285.041 203.123 282.409 203.087H278.676V199.032Z" fill="white"/>
</g>
<defs>
<clipPath id="clip0">
<rect width="400" height="400" fill="white"/>
</clipPath>
</defs>
</svg>
