<?xml version="1.0" encoding="iso-8859-1"?>
<!-- Generator: Adobe Illustrator 16.0.0, SVG Export Plug-In . SVG Version: 6.00 Build 0)  -->
<!DOCTYPE svg PUBLIC "-//W3C//DTD SVG 1.1//EN" "http://www.w3.org/Graphics/SVG/1.1/DTD/svg11.dtd">
<svg version="1.1" id="Capa_1" xmlns="http://www.w3.org/2000/svg" xmlns:xlink="http://www.w3.org/1999/xlink" x="0px" y="0px"
	 width="648.479px" height="648.479px" viewBox="0 0 648.479 648.479" style="enable-background:new 0 0 648.479 648.479;"
	 xml:space="preserve">
<g>
	<g>
		<path d="M469.462,141.782l-0.025-0.053c0.03,0.007,0.062,0.015,0.096,0.019C469.51,141.762,469.482,141.768,469.462,141.782z"/>
		<path d="M648.474,502.852c0.001-0.018,0.005-0.032,0.005-0.049v0.05C648.477,502.853,648.475,502.853,648.474,502.852z"/>
		<path d="M460.139,126.352c-0.003-0.001-0.005-0.001-0.006-0.001c0.001-0.016,0.006-0.032,0.006-0.047V126.352z"/>
	</g>
	<path d="M320.485,122.45c-0.57-3.64-0.396-24.512-16.203-28.531c-17.568-4.465-33.463,1.585-34.771,16.567l0.123-12.577
		c0-21.23-17.202-26.119-38.426-26.119c-20.871,0-37.301,4.779-38.353,20.894v-4.896c0-21.208-17.905-25.922-39.137-25.922
		c-20.521,0-36.592,4.465-37.613,23.963c-0.842-8.675-14.536-14.272-34.312-13.249c-19.761,1.045-36.985,8.981-35.948,28.75
		l-0.072,68.872c-20.463,8.258-43.082,15.106-44.26,47.715c0,0-3.091,50.17-0.438,65.861
		c7.169,42.562,60.694,145.352,83.108,150.964L84.11,539.687c0,25.241,24.388,45.756,49.6,46.59
		c1.674,0.197,115.478,0.336,115.478,0.336c27.625,0,44.302-22.407,44.302-50.024v-95.093c15.056-3.567,27.521-33.501,25.375-51.238
		L320.485,122.45z"/>
</g>
<g>
</g>
<g>
</g>
<g>
</g>
<g>
</g>
<g>
</g>
<g>
</g>
<g>
</g>
<g>
</g>
<g>
</g>
<g>
</g>
<g>
</g>
<g>
</g>
<g>
</g>
<g>
</g>
<g>
</g>
</svg>
