<svg width="400" height="400" viewBox="0 0 400 400" fill="none" xmlns="http://www.w3.org/2000/svg">
<g id="button" clip-path="url(#clip0)">
<path id="Polygon-2" d="M17.7241 124.499L124.499 17.7241L275.501 17.7241L382.276 124.499L382.276 275.501L275.501 382.276L124.499 382.276L17.7241 275.501L17.7241 124.499Z" stroke="white" stroke-width="5"/>
<path id="Polygon-1" d="M60.4921 60.4921L200 2.70598L339.508 60.4921L397.294 200L339.508 339.508L200 397.294L60.4921 339.508L2.70598 200L60.4921 60.4921Z" stroke="white" stroke-width="5"/>
<path id="START GAME" d="M52.0698 203.571C47.6476 202.3 44.425 200.742 42.4019 198.898C40.3966 197.036 39.394 194.744 39.394 192.023C39.394 188.944 40.6204 186.401 43.0732 184.396C45.5439 182.373 48.7487 181.361 52.6875 181.361C55.373 181.361 57.7632 181.881 59.8579 182.919C61.9705 183.957 63.5998 185.39 64.7456 187.216C65.9093 189.042 66.4912 191.038 66.4912 193.205H61.3081C61.3081 190.841 60.5562 188.988 59.0522 187.646C57.5483 186.285 55.4268 185.604 52.6875 185.604C50.1452 185.604 48.1579 186.168 46.7256 187.296C45.3112 188.406 44.604 189.955 44.604 191.942C44.604 193.536 45.2754 194.888 46.6182 195.998C47.9788 197.09 50.2795 198.092 53.52 199.005C56.7785 199.918 59.3208 200.93 61.147 202.04C62.991 203.132 64.3517 204.412 65.229 205.88C66.1242 207.348 66.5718 209.076 66.5718 211.063C66.5718 214.232 65.3364 216.775 62.8657 218.69C60.395 220.588 57.0918 221.537 52.9561 221.537C50.2705 221.537 47.764 221.027 45.4365 220.006C43.109 218.968 41.3097 217.554 40.0386 215.763C38.7853 213.973 38.1587 211.941 38.1587 209.667H43.3418C43.3418 212.03 44.2101 213.901 45.9468 215.28C47.7013 216.64 50.0378 217.321 52.9561 217.321C55.6774 217.321 57.7632 216.766 59.2134 215.656C60.6636 214.546 61.3887 213.033 61.3887 211.117C61.3887 209.201 60.7173 207.724 59.3745 206.686C58.0317 205.63 55.5968 204.591 52.0698 203.571ZM100.222 186.142H87.6533V221H82.5239V186.142H69.9824V181.898H100.222V186.142ZM125.466 210.795H109.084L105.405 221H100.087L115.019 181.898H119.531L134.489 221H129.199L125.466 210.795ZM110.642 206.552H123.935L117.275 188.263L110.642 206.552ZM154.094 205.182H144.909V221H139.726V181.898H152.67C157.075 181.898 160.458 182.901 162.822 184.906C165.203 186.911 166.394 189.83 166.394 193.661C166.394 196.096 165.731 198.218 164.406 200.026C163.099 201.834 161.273 203.186 158.928 204.081L168.112 220.678V221H162.58L154.094 205.182ZM144.909 200.966H152.832C155.392 200.966 157.424 200.303 158.928 198.979C160.45 197.654 161.21 195.881 161.21 193.661C161.21 191.244 160.485 189.391 159.035 188.102C157.603 186.813 155.526 186.16 152.805 186.142H144.909V200.966ZM198.513 186.142H185.944V221H180.815V186.142H168.273V181.898H198.513V186.142ZM245.751 215.871C244.427 217.768 242.574 219.192 240.192 220.141C237.829 221.072 235.072 221.537 231.921 221.537C228.734 221.537 225.905 220.794 223.435 219.308C220.964 217.804 219.048 215.674 217.688 212.917C216.345 210.159 215.655 206.964 215.62 203.329V199.918C215.62 194.028 216.989 189.463 219.729 186.222C222.486 182.982 226.353 181.361 231.33 181.361C235.412 181.361 238.697 182.409 241.186 184.503C243.675 186.58 245.196 189.534 245.751 193.366H240.595C239.628 188.192 236.549 185.604 231.357 185.604C227.902 185.604 225.279 186.822 223.488 189.257C221.716 191.674 220.821 195.183 220.803 199.784V202.98C220.803 207.366 221.805 210.858 223.811 213.454C225.816 216.032 228.528 217.321 231.948 217.321C233.881 217.321 235.573 217.106 237.023 216.676C238.474 216.247 239.673 215.521 240.622 214.501V205.719H231.572V201.53H245.751V215.871ZM275.964 210.795H259.582L255.903 221H250.585L265.517 181.898H270.029L284.987 221H279.697L275.964 210.795ZM261.14 206.552H274.433L267.773 188.263L261.14 206.552ZM296.911 181.898L309.694 213.803L322.478 181.898H329.165V221H324.008V205.773L324.492 189.337L311.655 221H307.707L294.897 189.418L295.407 205.773V221H290.251V181.898H296.911ZM360.371 202.926H343.425V216.784H363.11V221H338.269V181.898H362.841V186.142H343.425V198.71H360.371V202.926Z" fill="white"/>
</g>
<defs>
<clipPath id="clip0">
<rect width="400" height="400" fill="white"/>
</clipPath>
</defs>
</svg>
